<?xml version="1.0" encoding="utf-8"?>
<!-- Generator: Adobe Illustrator 25.2.0, SVG Export Plug-In . SVG Version: 6.00 Build 0)  -->
<svg version="1.0" id="Layer_1" xmlns="http://www.w3.org/2000/svg" xmlns:xlink="http://www.w3.org/1999/xlink" x="0px" y="0px"
	 viewBox="0 0 566.93 566.93" style="enable-background:new 0 0 566.93 566.93;" xml:space="preserve">
<style type="text/css">
	.st0{fill:#FFFFFF;}
	.st1{fill:#404040;}
	.st2{fill:none;}
	.st3{fill:#BFBFBF;}
	.st4{fill:url(#SVGID_1_);}
	.st5{fill:url(#SVGID_2_);}
	.st6{fill:url(#SVGID_3_);}
	.st7{fill:url(#SVGID_4_);}
</style>
<path d="M283.46,131.33c-83.89,0-152.13,68.25-152.13,152.14c0,83.89,68.24,152.13,152.13,152.13s152.13-68.24,152.13-152.13
	C435.59,199.58,367.35,131.33,283.46,131.33z M283.46,366.06c-45.54,0-82.59-37.05-82.59-82.59c0-45.54,37.05-82.59,82.59-82.59
	s82.59,37.05,82.59,82.59C366.05,329.01,329,366.06,283.46,366.06z"/>
<path d="M455.03,111.89C409.2,66.06,348.27,40.82,283.46,40.82s-125.74,25.24-171.57,71.07c-45.83,45.82-71.07,106.76-71.07,171.57
	c0,64.81,25.24,125.74,71.07,171.57c45.83,45.83,106.76,71.07,171.57,71.07s125.74-25.24,171.57-71.07
	c45.83-45.83,71.07-106.76,71.07-171.57C526.1,218.65,500.86,157.71,455.03,111.89z M442.06,350.46
	c-8.67,20.5-21.08,38.91-36.88,54.72c-15.81,15.8-34.21,28.21-54.71,36.88c-21.23,8.98-43.78,13.53-67.01,13.53
	s-45.78-4.55-67.01-13.53c-20.5-8.67-38.9-21.08-54.71-36.88c-15.8-15.81-28.21-34.22-36.88-54.72c-8.98-21.23-13.53-43.77-13.53-67
	s4.55-45.78,13.53-67.01c8.67-20.5,21.08-38.91,36.88-54.71c15.81-15.8,34.21-28.21,54.71-36.88c21.23-8.98,43.78-13.54,67.01-13.54
	s45.78,4.56,67.01,13.54c20.5,8.67,38.9,21.08,54.71,36.88c15.8,15.81,28.21,34.21,36.88,54.71c8.98,21.23,13.53,43.78,13.53,67.01
	S451.04,329.23,442.06,350.46z"/>
<path class="st3" d="M442.06,216.46c-8.67-20.5-21.08-38.9-36.88-54.71c-15.81-15.8-34.21-28.21-54.71-36.88
	c-21.23-8.98-43.78-13.54-67.01-13.54s-45.78,4.56-67.01,13.54c-20.5,8.67-38.9,21.08-54.71,36.88
	c-15.8,15.8-28.21,34.21-36.88,54.71c-8.98,21.23-13.53,43.78-13.53,67.01s4.55,45.77,13.53,67c8.67,20.5,21.08,38.91,36.88,54.72
	c15.81,15.8,34.21,28.21,54.71,36.88c21.23,8.98,43.78,13.53,67.01,13.53s45.78-4.55,67.01-13.53c20.5-8.67,38.9-21.08,54.71-36.88
	c15.8-15.81,28.21-34.22,36.88-54.72c8.98-21.23,13.53-43.77,13.53-67S451.04,237.69,442.06,216.46z M283.46,435.6
	c-83.89,0-152.13-68.24-152.13-152.13c0-83.89,68.24-152.14,152.13-152.14s152.13,68.25,152.13,152.14
	C435.59,367.36,367.35,435.6,283.46,435.6z"/>
<path d="M347.09,283.46c0,35.09-28.54,63.64-63.63,63.64c-35.09,0-63.63-28.55-63.63-63.64c0-35.09,28.54-63.63,63.63-63.63
	C318.55,219.83,347.09,248.37,347.09,283.46z"/>
<path class="st3" d="M283.46,200.87c-45.54,0-82.59,37.05-82.59,82.59c0,45.54,37.05,82.59,82.59,82.59s82.59-37.05,82.59-82.59
	C366.05,237.92,329,200.87,283.46,200.87z M283.46,347.1c-35.09,0-63.63-28.55-63.63-63.64c0-35.09,28.54-63.63,63.63-63.63
	c35.09,0,63.63,28.54,63.63,63.63C347.09,318.55,318.55,347.1,283.46,347.1z"/>
</svg>
