<?xml version="1.0" encoding="utf-8"?>
<!-- Generator: Adobe Illustrator 25.1.0, SVG Export Plug-In . SVG Version: 6.00 Build 0)  -->
<svg version="1.0" id="Layer_1" xmlns="http://www.w3.org/2000/svg" xmlns:xlink="http://www.w3.org/1999/xlink" x="0px" y="0px"
	 viewBox="0 0 566.93 566.93" style="enable-background:new 0 0 566.93 566.93;" xml:space="preserve">
<style type="text/css">
	.st0{fill:#FFFFFF;}
	.st1{fill:#808080;}
	.st2{fill:none;}
</style>
<g>
	<path d="M283.46,136.32c-81.13,0-147.13,66.01-147.13,147.14c0,81.13,66,147.13,147.13,147.13s147.13-66,147.13-147.13
		C430.59,202.33,364.59,136.32,283.46,136.32z M283.46,368.55c-46.92,0-85.09-38.17-85.09-85.09s38.17-85.09,85.09-85.09
		s85.09,38.17,85.09,85.09S330.38,368.55,283.46,368.55z"/>
	<path d="M455.03,111.89C409.2,66.06,348.27,40.82,283.46,40.82s-125.74,25.24-171.57,71.07c-45.83,45.82-71.07,106.76-71.07,171.57
		c0,64.81,25.24,125.74,71.07,171.57c45.83,45.83,106.76,71.07,171.57,71.07s125.74-25.24,171.57-71.07
		c45.83-45.83,71.07-106.76,71.07-171.57C526.1,218.65,500.86,157.71,455.03,111.89z M446.67,352.41
		c-8.92,21.09-21.69,40.04-37.95,56.31c-16.28,16.27-35.22,29.04-56.3,37.95c-21.84,9.24-45.04,13.92-68.96,13.92
		s-47.11-4.68-68.96-13.92c-21.08-8.92-40.02-21.68-56.3-37.95c-16.26-16.27-29.03-35.22-37.95-56.31
		c-9.24-21.84-13.92-45.04-13.92-68.95c0-23.91,4.69-47.11,13.93-68.96c8.92-21.1,21.69-40.04,37.95-56.3
		c16.28-16.27,35.22-29.03,56.3-37.95c21.86-9.25,45.06-13.93,68.96-13.93s47.1,4.69,68.96,13.94c21.08,8.92,40.02,21.68,56.3,37.95
		c16.27,16.27,29.03,35.22,37.95,56.3v0c9.24,21.84,13.92,45.04,13.92,68.96C460.59,307.37,455.91,330.57,446.67,352.41z"/>
	<path class="st1" d="M446.67,214.51L446.67,214.51c-8.92-21.08-21.69-40.02-37.95-56.3c-16.28-16.27-35.22-29.03-56.3-37.95
		c-21.86-9.25-45.06-13.94-68.96-13.94s-47.1,4.69-68.96,13.93c-21.08,8.92-40.02,21.68-56.3,37.95
		c-16.26,16.26-29.03,35.2-37.95,56.3c-9.24,21.84-13.93,45.05-13.93,68.96c0,23.91,4.69,47.1,13.92,68.95
		c8.92,21.09,21.69,40.04,37.95,56.31c16.28,16.26,35.22,29.03,56.3,37.95c21.84,9.24,45.04,13.92,68.96,13.92
		s47.11-4.68,68.96-13.92c21.08-8.92,40.02-21.68,56.3-37.95c16.26-16.27,29.03-35.21,37.95-56.31
		c9.24-21.84,13.92-45.04,13.92-68.95C460.59,259.55,455.91,236.35,446.67,214.51z M283.46,430.59c-81.13,0-147.13-66-147.13-147.13
		c0-81.13,66-147.14,147.13-147.14s147.13,66.01,147.13,147.14C430.59,364.59,364.59,430.59,283.46,430.59z"/>
	<path d="M283.46,222.33c-33.71,0-61.13,27.42-61.13,61.13c0,33.71,27.42,61.14,61.13,61.14s61.13-27.43,61.13-61.14
		C344.59,249.76,317.17,222.33,283.46,222.33z"/>
	<path class="st1" d="M283.46,198.37c-46.92,0-85.09,38.17-85.09,85.09s38.17,85.09,85.09,85.09s85.09-38.17,85.09-85.09
		S330.38,198.37,283.46,198.37z M283.46,344.61c-33.71,0-61.13-27.43-61.13-61.14c0-33.71,27.42-61.13,61.13-61.13
		s61.13,27.42,61.13,61.13C344.59,317.18,317.17,344.61,283.46,344.61z"/>
</g>
</svg>
