<?xml version="1.0" encoding="utf-8"?>
<!-- Generator: Adobe Illustrator 25.1.0, SVG Export Plug-In . SVG Version: 6.00 Build 0)  -->
<svg version="1.0" id="Layer_1" xmlns="http://www.w3.org/2000/svg" xmlns:xlink="http://www.w3.org/1999/xlink" x="0px" y="0px"
	 viewBox="0 0 566.93 566.93" style="enable-background:new 0 0 566.93 566.93;" xml:space="preserve">
<style type="text/css">
	.st0{fill:#FFFFFF;}
	.st1{fill:#808080;}
	.st2{fill:none;}
</style>
<g>
	<path class="st2" d="M372.68,237.17l-8.26,95.17c-0.68,7.81-7.1,13.7-14.94,13.7H217.45c-6.37,0-11.8-3.89-13.98-9.53
		c2.18,5.65,7.61,9.54,13.98,9.54h132.03c7.84,0,14.26-5.89,14.94-13.7L372.68,237.17c0.21-2.38-0.16-4.71-1-6.83
		C372.53,232.46,372.89,234.79,372.68,237.17z"/>
	<path class="st0" d="M455.04,111.89c-45.83-45.83-106.76-71.07-171.58-71.07c-64.81,0-125.74,25.24-171.57,71.07
		c-45.83,45.82-71.07,106.76-71.07,171.57c0,64.81,25.24,125.74,71.07,171.57c45.83,45.83,106.76,71.07,171.57,71.07
		c64.82,0,125.75-25.24,171.58-71.07c45.82-45.83,71.06-106.76,71.06-171.57C526.1,218.65,500.86,157.71,455.04,111.89z
		 M446.68,352.41c-8.94,21.11-21.71,40.05-37.96,56.3c-16.25,16.26-35.19,29.03-56.3,37.96c-21.84,9.24-45.04,13.93-68.96,13.93
		c-23.91,0-47.1-4.69-68.95-13.93c-21.1-8.93-40.04-21.7-56.3-37.96c-16.26-16.25-29.03-35.19-37.96-56.3
		c-9.24-21.84-13.92-45.04-13.92-68.95c0-23.91,4.69-47.11,13.93-68.96c8.92-21.09,21.69-40.03,37.96-56.3
		c16.26-16.26,35.2-29.03,56.3-37.95c21.86-9.25,45.06-13.94,68.95-13.94c23.9,0,47.1,4.69,68.96,13.94
		c21.1,8.92,40.04,21.69,56.3,37.95c15.47,15.47,27.78,33.37,36.63,53.25h0.04l1.3,3.05c9.24,21.87,13.92,45.07,13.92,68.96
		C460.6,307.35,455.92,330.54,446.68,352.41z"/>
	<path class="st0" d="M283.46,136.32c-81.13,0-147.13,66.01-147.13,147.14c0,81.13,66,147.13,147.13,147.13
		c81.13,0,147.14-66,147.14-147.13C430.6,202.33,364.6,136.32,283.46,136.32z M372.68,237.17l-8.26,95.17
		c-0.68,7.81-7.1,13.7-14.94,13.7H217.45c-6.37,0-11.8-3.89-13.98-9.54c-0.5-1.3-0.83-2.7-0.96-4.17l-8.26-95.17
		c-0.56-6.35,2.95-12.32,8.74-14.95l0.46-0.21c1.83-0.75,3.76-1.14,5.74-1.14c4.25,0,8.31,1.82,11.15,4.98l25.99,28.9l25.98-28.9
		c2.84-3.16,6.91-4.98,11.15-4.98c4.25,0,8.32,1.82,11.16,4.98l25.98,28.9l25.98-28.9c2.84-3.16,6.91-4.98,11.16-4.98
		c1.98,0,3.91,0.39,5.73,1.14l0.47,0.21c3.62,1.64,6.34,4.59,7.74,8.12C372.53,232.46,372.89,234.79,372.68,237.17z"/>
	<path class="st1" d="M217.45,346.04h132.03c7.84,0,14.26-5.89,14.94-13.7l8.26-95.17c0.21-2.38-0.16-4.71-1-6.83
		c-1.4-3.53-4.12-6.48-7.74-8.12l-0.47-0.21c-1.82-0.75-3.75-1.14-5.73-1.14c-4.25,0-8.32,1.82-11.16,4.98l-25.98,28.9l-25.98-28.9
		c-2.84-3.16-6.91-4.98-11.16-4.98c-4.24,0-8.31,1.82-11.15,4.98l-25.98,28.9l-25.99-28.9c-2.84-3.16-6.9-4.98-11.15-4.98
		c-1.98,0-3.91,0.39-5.74,1.14l-0.46,0.21c-5.79,2.63-9.3,8.6-8.74,14.95l8.26,95.17c0.13,1.47,0.46,2.86,0.96,4.17
		C205.65,342.15,211.08,346.04,217.45,346.04z M344.89,326.04H222.04l-6.58-75.71l30.87,34.33l37.13-41.31l37.14,41.31l30.86-34.33
		L344.89,326.04z"/>
	<path class="st1" d="M446.68,214.51l-1.3-3.05h-0.04c-8.84-19.88-21.15-37.78-36.63-53.25c-16.26-16.26-35.2-29.03-56.3-37.95
		c-21.86-9.25-45.06-13.94-68.96-13.94c-23.89,0-47.09,4.69-68.95,13.94c-21.1,8.92-40.04,21.69-56.3,37.95
		c-16.27,16.27-29.04,35.21-37.96,56.3c-9.24,21.84-13.93,45.04-13.93,68.96c0,23.91,4.69,47.1,13.92,68.95
		c8.93,21.1,21.7,40.04,37.96,56.3c16.25,16.26,35.19,29.03,56.3,37.96c21.85,9.24,45.04,13.93,68.95,13.93
		c23.91,0,47.11-4.69,68.96-13.93c21.1-8.93,40.05-21.7,56.3-37.96c16.25-16.25,29.03-35.19,37.96-56.3
		c9.24-21.87,13.92-45.06,13.92-68.95C460.6,259.58,455.92,236.38,446.68,214.51z M430.6,283.46c0,81.13-66.01,147.13-147.14,147.13
		c-81.13,0-147.13-66-147.13-147.13c0-81.13,66-147.14,147.13-147.14C364.6,136.32,430.6,202.33,430.6,283.46z"/>
	<polygon class="st0" points="283.46,243.35 246.33,284.66 215.46,250.33 222.04,326.04 344.89,326.04 351.46,250.33 320.6,284.66 	
		"/>
</g>
</svg>
