<?xml version="1.0" encoding="utf-8"?>
<!-- Generator: Adobe Illustrator 25.2.0, SVG Export Plug-In . SVG Version: 6.00 Build 0)  -->
<svg version="1.0" id="Layer_1" xmlns="http://www.w3.org/2000/svg" xmlns:xlink="http://www.w3.org/1999/xlink" x="0px" y="0px"
	 viewBox="0 0 566.93 566.93" style="enable-background:new 0 0 566.93 566.93;" xml:space="preserve">
<style type="text/css">
	.st0{fill:#FFFFFF;}
	.st1{fill:#404040;}
	.st2{fill:none;}
	.st3{fill:#BFBFBF;}
	.st4{fill:url(#SVGID_1_);}
	.st5{fill:url(#SVGID_2_);}
	.st6{fill:url(#SVGID_3_);}
	.st7{fill:url(#SVGID_4_);}
</style>
<path class="st0" d="M455.04,111.89c-45.83-45.83-106.76-71.07-171.58-71.07c-64.81,0-125.74,25.24-171.57,71.07
	c-45.83,45.82-71.07,106.76-71.07,171.57c0,64.81,25.24,125.74,71.07,171.57c45.83,45.83,106.76,71.07,171.57,71.07
	c64.82,0,125.75-25.24,171.58-71.07c45.82-45.83,71.06-106.76,71.06-171.57C526.1,218.65,500.86,157.71,455.04,111.89z
	 M442.07,350.46c-8.68,20.5-21.09,38.91-36.89,54.71c-15.8,15.81-34.21,28.22-54.71,36.89c-21.23,8.98-43.78,13.53-67.01,13.53
	c-23.23,0-45.77-4.55-67-13.53c-20.5-8.67-38.91-21.08-54.71-36.89c-15.81-15.8-28.22-34.21-36.89-54.71
	c-8.98-21.23-13.53-43.77-13.53-67c0-23.23,4.55-45.78,13.53-67.01c8.67-20.5,21.08-38.9,36.89-54.71
	c15.8-15.8,34.21-28.21,54.71-36.88c21.23-8.98,43.77-13.54,67-13.54c23.23,0,45.78,4.56,67.01,13.54
	c20.5,8.67,38.91,21.08,54.71,36.88s28.21,34.21,36.88,54.71h0.01c8.97,21.23,13.53,43.78,13.53,67.01
	C455.6,306.69,451.04,329.23,442.07,350.46z"/>
<path class="st0" d="M283.46,131.33c-83.88,0-152.13,68.25-152.13,152.14c0,83.89,68.25,152.13,152.13,152.13
	c83.89,0,152.14-68.24,152.14-152.13C435.6,199.58,367.35,131.33,283.46,131.33z M372.68,237.18l-8.26,95.17
	c-0.68,7.81-7.1,13.7-14.94,13.7H217.45c-7.84,0-14.26-5.89-14.94-13.7l-8.26-95.17c-0.56-6.35,2.95-12.32,8.74-14.95l0.46-0.21
	c1.83-0.75,3.76-1.14,5.74-1.14c4.25,0,8.31,1.82,11.15,4.98l25.99,28.9l25.98-28.9c2.84-3.16,6.91-4.98,11.15-4.98
	c4.25,0,8.32,1.82,11.16,4.98l25.98,28.9l25.98-28.9c2.84-3.16,6.91-4.98,11.16-4.98c1.98,0,3.91,0.39,5.73,1.14l0.47,0.21
	C369.73,224.85,373.23,230.83,372.68,237.18z"/>
<g>
	<path class="st1" d="M372.68,237.18l-8.26,95.17c-0.68,7.81-7.1,13.7-14.94,13.7H217.45c-7.84,0-14.26-5.89-14.94-13.7l-8.26-95.17
		c-0.56-6.35,2.95-12.32,8.74-14.95l0.46-0.21c1.83-0.75,3.76-1.14,5.74-1.14c4.25,0,8.31,1.82,11.15,4.98l25.99,28.9l25.98-28.9
		c2.84-3.16,6.91-4.98,11.15-4.98c4.25,0,8.32,1.82,11.16,4.98l25.98,28.9l25.98-28.9c2.84-3.16,6.91-4.98,11.16-4.98
		c1.98,0,3.91,0.39,5.73,1.14l0.47,0.21C369.73,224.85,373.23,230.83,372.68,237.18z"/>
</g>
<path class="st1" d="M283.46,435.6c-83.88,0-152.13-68.24-152.13-152.13c0-83.89,68.25-152.14,152.13-152.14
	c83.89,0,152.14,68.25,152.14,152.14C435.6,367.36,367.35,435.6,283.46,435.6z M442.07,216.46h-0.01
	c-8.67-20.5-21.08-38.91-36.88-54.71s-34.21-28.21-54.71-36.88c-21.23-8.98-43.78-13.54-67.01-13.54c-23.23,0-45.77,4.56-67,13.54
	c-20.5,8.67-38.91,21.08-54.71,36.88c-15.81,15.81-28.22,34.21-36.89,54.71c-8.98,21.23-13.53,43.78-13.53,67.01
	c0,23.23,4.55,45.77,13.53,67c8.67,20.5,21.08,38.91,36.89,54.71c15.8,15.81,34.21,28.22,54.71,36.89
	c21.23,8.98,43.77,13.53,67,13.53c23.23,0,45.78-4.55,67.01-13.53c20.5-8.67,38.91-21.08,54.71-36.89
	c15.8-15.8,28.21-34.21,36.89-54.71c8.97-21.23,13.53-43.77,13.53-67C455.6,260.24,451.04,237.69,442.07,216.46z"/>
<polygon class="st0" points="351.46,249.1 344.89,324.81 222.04,324.81 215.46,249.1 246.33,283.43 283.46,242.12 320.6,283.43 "/>
</svg>
