<?xml version="1.0" encoding="UTF-8" standalone="no"?>
<!-- Generator: Adobe Illustrator 16.0.0, SVG Export Plug-In . SVG Version: 6.00 Build 0)  -->

<svg
   xmlns:dc="http://purl.org/dc/elements/1.1/"
   xmlns:cc="http://creativecommons.org/ns#"
   xmlns:rdf="http://www.w3.org/1999/02/22-rdf-syntax-ns#"
   xmlns:svg="http://www.w3.org/2000/svg"
   xmlns="http://www.w3.org/2000/svg"
   xmlns:sodipodi="http://sodipodi.sourceforge.net/DTD/sodipodi-0.dtd"
   xmlns:inkscape="http://www.inkscape.org/namespaces/inkscape"
   version="1.1"
   id="Capa_1"
   x="0px"
   y="0px"
   width="480px"
   height="480px"
   viewBox="0 0 480 480"
   style="enable-background:new 0 0 480 480;"
   xml:space="preserve"
   sodipodi:docname="brazilian_globe.svg"
   inkscape:version="0.92.4 (5da689c313, 2019-01-14)"><metadata
   id="metadata45"><rdf:RDF><cc:Work
       rdf:about=""><dc:format>image/svg+xml</dc:format><dc:type
         rdf:resource="http://purl.org/dc/dcmitype/StillImage" /></cc:Work></rdf:RDF></metadata><defs
   id="defs43">
	
	
	
</defs><sodipodi:namedview
   pagecolor="#ffffff"
   bordercolor="#666666"
   borderopacity="1"
   objecttolerance="10"
   gridtolerance="10"
   guidetolerance="10"
   inkscape:pageopacity="0"
   inkscape:pageshadow="2"
   inkscape:window-width="1888"
   inkscape:window-height="1092"
   id="namedview41"
   showgrid="false"
   inkscape:zoom="1.13"
   inkscape:cx="245.96483"
   inkscape:cy="195.39764"
   inkscape:window-x="2381"
   inkscape:window-y="144"
   inkscape:window-maximized="0"
   inkscape:current-layer="Capa_1" />
<path
   d="M 240 107.23633 L 46 248.23633 L 240 389.23633 L 434 248.23633 L 240 107.23633 z M 238.74609 161.11133 C 276.72799 161.01898 311.67197 185.97241 322.64453 224.23828 C 325.13216 232.91368 326.26228 241.68076 326.04883 250.24219 C 286.85301 208.20981 219.08917 192.32155 163.2168 205.2207 C 174.04251 186.10628 192.15392 171.02997 214.89258 164.50977 C 222.85025 162.22794 230.86306 161.13049 238.74609 161.11133 z M 194.8125 221.00781 C 243.02254 220.70672 291.73259 238.63798 322.78125 271.93359 C 314.8216 300.00922 293.05204 323.3498 263.00781 331.96484 C 216.70864 345.24091 168.50575 318.44418 155.25586 272.23633 C 150.72577 256.43799 150.8661 240.38686 154.83203 225.61133 C 167.85367 222.60504 181.31369 221.09212 194.8125 221.00781 z "
   id="path6" />
<g
   id="g10">
</g>
<g
   id="g12">
</g>
<g
   id="g14">
</g>
<g
   id="g16">
</g>
<g
   id="g18">
</g>
<g
   id="g20">
</g>
<g
   id="g22">
</g>
<g
   id="g24">
</g>
<g
   id="g26">
</g>
<g
   id="g28">
</g>
<g
   id="g30">
</g>
<g
   id="g32">
</g>
<g
   id="g34">
</g>
<g
   id="g36">
</g>
<g
   id="g38">
</g>
</svg>