<?xml version="1.0" encoding="UTF-8" standalone="no"?>
<!-- Created with Inkscape (http://www.inkscape.org/) -->

<svg
   xmlns:dc="http://purl.org/dc/elements/1.1/"
   xmlns:cc="http://creativecommons.org/ns#"
   xmlns:rdf="http://www.w3.org/1999/02/22-rdf-syntax-ns#"
   xmlns:svg="http://www.w3.org/2000/svg"
   xmlns="http://www.w3.org/2000/svg"
   xmlns:sodipodi="http://sodipodi.sourceforge.net/DTD/sodipodi-0.dtd"
   xmlns:inkscape="http://www.inkscape.org/namespaces/inkscape"
   width="210mm"
   height="297mm"
   viewBox="0 0 210 297"
   version="1.1"
   id="svg4275"
   inkscape:version="0.92.4 (5da689c313, 2019-01-14)"
   sodipodi:docname="russian-target4.svg">
  <defs
     id="defs4269" />
  <sodipodi:namedview
     id="base"
     pagecolor="#ffffff"
     bordercolor="#666666"
     borderopacity="1.0"
     inkscape:pageopacity="0.0"
     inkscape:pageshadow="2"
     inkscape:zoom="1.5395044"
     inkscape:cx="-110.17838"
     inkscape:cy="868.79502"
     inkscape:document-units="mm"
     inkscape:current-layer="layer1"
     showgrid="false"
     inkscape:window-width="2560"
     inkscape:window-height="1361"
     inkscape:window-x="1991"
     inkscape:window-y="-9"
     inkscape:window-maximized="1" />
  <metadata
     id="metadata4272">
    <rdf:RDF>
      <cc:Work
         rdf:about="">
        <dc:format>image/svg+xml</dc:format>
        <dc:type
           rdf:resource="http://purl.org/dc/dcmitype/StillImage" />
        <dc:title></dc:title>
      </cc:Work>
    </rdf:RDF>
  </metadata>
  <g
     inkscape:label="Laag 1"
     inkscape:groupmode="layer"
     id="layer1">
    <path
       style="stroke-width:0.30205441"
       d="m 266.66494,-7.4192227 c 0,0 -95.05323,30.8955997 -54.1104,78.3836667 l -0.39474,0.404932 0.18661,0.213777 -4.297,4.297024 c -6.95075,-5.789485 -14.71956,-9.786225 -21.11186,-9.786225 H 124.76018 62.585093 c -15.623173,0 -39.479696,23.856526 -39.479696,39.479698 v 62.17623 62.17621 c 0,6.39215 3.996953,14.16122 9.786224,21.11186 l -17.71519,17.71521 c -2.316479,2.31647 -2.316479,6.37029 0,8.6868 1.73736,1.15821 2.895599,1.73736 4.632959,1.73736 1.73736,0 2.8956,-0.57915 4.63296,-1.73736 l 17.251442,-17.63489 c 6.89395,5.68963 14.567072,9.59959 20.891301,9.59959 h 62.175087 62.17737 c 6.37799,0 14.12665,-3.97712 21.06547,-9.7455 l 17.39396,17.7808 c 1.15825,1.15821 2.8956,1.73736 4.63296,1.73736 1.15822,0 2.8956,-0.57915 4.05384,-1.73736 2.31648,-2.31651 2.31648,-6.37033 0,-8.6868 L 216.6887,250.97122 c 5.75865,-6.93338 9.72741,-14.67371 9.72741,-21.04513 v -62.17621 -62.17623 c 0,-6.357282 -3.94986,-14.077086 -9.68783,-20.998756 l 3.69754,-3.697548 0.0136,0.01587 1.12432,-1.153718 c 8.39298,7.004666 16.13799,9.867192 23.84458,9.765863 33.79051,-0.444296 53.09693,-65.326318 53.09693,-65.326317 l -31.4195,0.41398 z m -12.79946,18.5488067 0.17872,13.634203 0.0465,3.557291 -12.28481,12.612825 -0.30427,-23.119556 c 4.11853,-2.425824 8.24545,-4.258936 12.36398,-6.684763 z m 47.1915,4.567356 -17.1915,0.226219 17.1915,-0.225088 z m -71.89571,10.580252 0.24206,18.432302 h 9.1e-4 l 0.12328,9.429928 -8.19817,7.815861 c -7.83119,-9.383747 -6.13084,-15.336009 -6.16203,-17.707275 1.70051,-5.95154 6.95798,-11.949129 13.99388,-17.970816 z m 51.13109,10.592691 c -8.05782,18.486415 -21.41216,40.007353 -35.04694,40.186632 -4.74249,0.06236 -9.51679,-2.246645 -14.9067,-6.32621 l 32.76214,-33.634203 z m -53.93621,2.628662 c 0.10222,0.208506 0.20593,0.416252 0.31332,0.625495 -0.10703,-0.209097 -0.21106,-0.417121 -0.31332,-0.625495 z M 69.932678,79.354897 h 54.827502 54.82751 c 5.32959,0 11.64034,3.082639 17.34645,7.640539 l -6.86348,6.863475 -10.44225,10.442249 -6.93134,6.93135 c -12.74064,-11.00328 -29.53512,-17.373599 -48.06696,-17.373599 -40.5384,0 -74.127359,33.009839 -74.127359,74.127359 0,41.11753 33.588959,74.12737 74.127359,74.12737 41.11752,0 74.12735,-33.00984 74.12735,-74.12737 0,-18.53184 -6.37032,-34.7472 -17.37359,-48.06696 l 6.93134,-6.93134 10.44225,-10.44226 6.85217,-6.852164 c 4.50612,5.674624 7.54665,11.935004 7.54665,17.227684 v 54.82865 54.82863 c 0,13.58538 -19.98323,33.56634 -33.56859,33.56634 H 124.76018 69.932678 c -13.585377,0 -33.567425,-19.98096 -33.567469,-33.56634 v -54.82863 -54.82865 c 0,-13.585361 19.982092,-33.566333 33.567469,-33.566333 z m 54.697432,26.665533 c 15.05712,0 28.37688,5.21208 39.38016,13.89888 l -17.95272,17.95271 c -5.79119,-4.63295 -13.31976,-6.94944 -21.42744,-6.94944 -20.2692,0 -37.06368,16.79449 -37.06368,37.06369 0,20.26921 16.79448,37.06368 37.06368,37.06368 20.84833,0 37.06368,-16.79447 37.06368,-37.06368 0,-8.10768 -2.31649,-15.63624 -6.94944,-21.42745 l 17.95272,-17.3736 c 8.6868,10.42416 13.89888,23.74393 13.89888,38.80105 0,34.16809 -27.79776,61.96585 -61.96584,61.96585 -33.58896,0 -61.38672,-27.79776 -61.38672,-61.96585 0,-34.16808 27.79776,-61.96584 61.38672,-61.96584 z m 0,37.06367 c 4.63296,0 9.26591,1.73736 12.74064,3.47472 l -9.26592,9.26593 h -3.47472 c -6.37032,0 -12.16152,5.21208 -12.16152,12.16152 0,6.94945 5.7912,12.16153 12.16152,12.16153 6.94944,0 12.74064,-5.21208 12.74064,-12.16153 0,-1.15824 -0.57911,-2.31647 -0.57911,-2.8956 l 9.26591,-9.84503 c 2.31648,4.05383 3.47472,8.10767 3.47472,12.74063 0,13.89889 -11.00327,24.90216 -24.90216,24.90216 -13.31976,0 -24.32304,-11.00327 -24.32304,-24.90216 0,-13.89888 11.00328,-24.90217 24.32304,-24.90217 z"
       id="rect20-0"
       inkscape:connector-curvature="0" />
  </g>
</svg>
