<?xml version="1.0" encoding="utf-8"?>
<!-- Generator: Adobe Illustrator 25.1.0, SVG Export Plug-In . SVG Version: 6.00 Build 0)  -->
<svg version="1.0" id="Layer_1" xmlns="http://www.w3.org/2000/svg" xmlns:xlink="http://www.w3.org/1999/xlink" x="0px" y="0px"
	 viewBox="0 0 566.93 566.93" style="enable-background:new 0 0 566.93 566.93;" xml:space="preserve">
<style type="text/css">
	.st0{fill:#dce0df;stroke:#dce0df;stroke-width:10;stroke-miterlimit:10;}
	.st1{stroke:#dce0df;stroke-width:10;stroke-miterlimit:10;}
	.st2{fill:#dce0df;}
	.st3{stroke:#231F20;stroke-width:10;stroke-miterlimit:10;}
</style>
<g>
	<polygon points="357.74,235.88 349.48,331.05 217.45,331.05 209.19,235.88 246.33,277.19 283.46,235.88 320.6,277.19 	"/>
	<path d="M283.46,126.33c-86.78,0-157.13,70.35-157.13,157.13c0,86.79,70.35,157.14,157.13,157.14
		c86.79,0,157.14-70.35,157.14-157.14C440.6,196.68,370.25,126.33,283.46,126.33z M367.7,236.74l-8.26,95.17
		c-0.45,5.17-4.78,9.14-9.96,9.14H217.45c-5.19,0-9.51-3.97-9.96-9.14l-8.26-95.17c-0.37-4.28,2.03-8.32,5.98-10.03
		c1.28-0.56,2.64-0.83,3.98-0.83c2.77,0,5.5,1.16,7.44,3.31l29.7,33.04l29.7-33.04c1.89-2.11,4.6-3.31,7.43-3.31
		c2.84,0,5.54,1.2,7.44,3.31l29.7,33.04l29.7-33.04c1.94-2.15,4.66-3.31,7.44-3.31c1.34,0,2.7,0.27,3.98,0.83
		C365.66,228.42,368.07,232.46,367.7,236.74z M283.46,126.33c-86.78,0-157.13,70.35-157.13,157.13
		c0,86.79,70.35,157.14,157.13,157.14c86.79,0,157.14-70.35,157.14-157.14C440.6,196.68,370.25,126.33,283.46,126.33z M367.7,236.74
		l-8.26,95.17c-0.45,5.17-4.78,9.14-9.96,9.14H217.45c-5.19,0-9.51-3.97-9.96-9.14l-8.26-95.17c-0.37-4.28,2.03-8.32,5.98-10.03
		c1.28-0.56,2.64-0.83,3.98-0.83c2.77,0,5.5,1.16,7.44,3.31l29.7,33.04l29.7-33.04c1.89-2.11,4.6-3.31,7.43-3.31
		c2.84,0,5.54,1.2,7.44,3.31l29.7,33.04l29.7-33.04c1.94-2.15,4.66-3.31,7.44-3.31c1.34,0,2.7,0.27,3.98,0.83
		C365.66,228.42,368.07,232.46,367.7,236.74z M283.46,126.33c-86.78,0-157.13,70.35-157.13,157.13
		c0,86.79,70.35,157.14,157.13,157.14c86.79,0,157.14-70.35,157.14-157.14C440.6,196.68,370.25,126.33,283.46,126.33z M367.7,236.74
		l-8.26,95.17c-0.45,5.17-4.78,9.14-9.96,9.14H217.45c-5.19,0-9.51-3.97-9.96-9.14l-8.26-95.17c-0.37-4.28,2.03-8.32,5.98-10.03
		c1.28-0.56,2.64-0.83,3.98-0.83c2.77,0,5.5,1.16,7.44,3.31l29.7,33.04l29.7-33.04c1.89-2.11,4.6-3.31,7.43-3.31
		c2.84,0,5.54,1.2,7.44,3.31l29.7,33.04l29.7-33.04c1.94-2.15,4.66-3.31,7.44-3.31c1.34,0,2.7,0.27,3.98,0.83
		C365.66,228.42,368.07,232.46,367.7,236.74z M283.46,126.33c-86.78,0-157.13,70.35-157.13,157.13
		c0,86.79,70.35,157.14,157.13,157.14c86.79,0,157.14-70.35,157.14-157.14C440.6,196.68,370.25,126.33,283.46,126.33z M367.7,236.74
		l-8.26,95.17c-0.45,5.17-4.78,9.14-9.96,9.14H217.45c-5.19,0-9.51-3.97-9.96-9.14l-8.26-95.17c-0.37-4.28,2.03-8.32,5.98-10.03
		c1.28-0.56,2.64-0.83,3.98-0.83c2.77,0,5.5,1.16,7.44,3.31l29.7,33.04l29.7-33.04c1.89-2.11,4.6-3.31,7.43-3.31
		c2.84,0,5.54,1.2,7.44,3.31l29.7,33.04l29.7-33.04c1.94-2.15,4.66-3.31,7.44-3.31c1.34,0,2.7,0.27,3.98,0.83
		C365.66,228.42,368.07,232.46,367.7,236.74z M283.46,50.82c-128.48,0-232.64,104.16-232.64,232.64
		c0,128.49,104.16,232.64,232.64,232.64c128.49,0,232.65-104.15,232.65-232.64C516.11,154.98,411.95,50.82,283.46,50.82z
		 M437.46,348.52c-8.42,19.91-20.47,37.78-35.81,53.13c-15.35,15.34-33.22,27.39-53.13,35.81c-20.61,8.72-42.5,13.14-65.06,13.14
		c-22.55,0-44.44-4.42-65.05-13.14c-19.91-8.42-37.78-20.47-53.13-35.81c-15.34-15.35-27.39-33.22-35.81-53.13
		c-8.72-20.61-13.14-42.5-13.14-65.06c0-22.55,4.42-44.44,13.14-65.06c8.42-19.9,20.47-37.77,35.81-53.12
		c15.35-15.34,33.22-27.39,53.13-35.81c20.61-8.72,42.5-13.14,65.05-13.14c22.56,0,44.45,4.42,65.06,13.14
		c19.91,8.42,37.78,20.47,53.13,35.81c15.34,15.35,27.39,33.22,35.81,53.12c8.72,20.62,13.14,42.51,13.14,65.06
		C450.6,306.02,446.18,327.91,437.46,348.52z M283.46,126.33c-86.78,0-157.13,70.35-157.13,157.13
		c0,86.79,70.35,157.14,157.13,157.14c86.79,0,157.14-70.35,157.14-157.14C440.6,196.68,370.25,126.33,283.46,126.33z M367.7,236.74
		l-8.26,95.17c-0.45,5.17-4.78,9.14-9.96,9.14H217.45c-5.19,0-9.51-3.97-9.96-9.14l-8.26-95.17c-0.37-4.28,2.03-8.32,5.98-10.03
		c1.28-0.56,2.64-0.83,3.98-0.83c2.77,0,5.5,1.16,7.44,3.31l29.7,33.04l29.7-33.04c1.89-2.11,4.6-3.31,7.43-3.31
		c2.84,0,5.54,1.2,7.44,3.31l29.7,33.04l29.7-33.04c1.94-2.15,4.66-3.31,7.44-3.31c1.34,0,2.7,0.27,3.98,0.83
		C365.66,228.42,368.07,232.46,367.7,236.74z M283.46,126.33c-86.78,0-157.13,70.35-157.13,157.13
		c0,86.79,70.35,157.14,157.13,157.14c86.79,0,157.14-70.35,157.14-157.14C440.6,196.68,370.25,126.33,283.46,126.33z M367.7,236.74
		l-8.26,95.17c-0.45,5.17-4.78,9.14-9.96,9.14H217.45c-5.19,0-9.51-3.97-9.96-9.14l-8.26-95.17c-0.37-4.28,2.03-8.32,5.98-10.03
		c1.28-0.56,2.64-0.83,3.98-0.83c2.77,0,5.5,1.16,7.44,3.31l29.7,33.04l29.7-33.04c1.89-2.11,4.6-3.31,7.43-3.31
		c2.84,0,5.54,1.2,7.44,3.31l29.7,33.04l29.7-33.04c1.94-2.15,4.66-3.31,7.44-3.31c1.34,0,2.7,0.27,3.98,0.83
		C365.66,228.42,368.07,232.46,367.7,236.74z M283.46,126.33c-86.78,0-157.13,70.35-157.13,157.13
		c0,86.79,70.35,157.14,157.13,157.14c86.79,0,157.14-70.35,157.14-157.14C440.6,196.68,370.25,126.33,283.46,126.33z M367.7,236.74
		l-8.26,95.17c-0.45,5.17-4.78,9.14-9.96,9.14H217.45c-5.19,0-9.51-3.97-9.96-9.14l-8.26-95.17c-0.37-4.28,2.03-8.32,5.98-10.03
		c1.28-0.56,2.64-0.83,3.98-0.83c2.77,0,5.5,1.16,7.44,3.31l29.7,33.04l29.7-33.04c1.89-2.11,4.6-3.31,7.43-3.31
		c2.84,0,5.54,1.2,7.44,3.31l29.7,33.04l29.7-33.04c1.94-2.15,4.66-3.31,7.44-3.31c1.34,0,2.7,0.27,3.98,0.83
		C365.66,228.42,368.07,232.46,367.7,236.74z M283.46,126.33c-86.78,0-157.13,70.35-157.13,157.13
		c0,86.79,70.35,157.14,157.13,157.14c86.79,0,157.14-70.35,157.14-157.14C440.6,196.68,370.25,126.33,283.46,126.33z M367.7,236.74
		l-8.26,95.17c-0.45,5.17-4.78,9.14-9.96,9.14H217.45c-5.19,0-9.51-3.97-9.96-9.14l-8.26-95.17c-0.37-4.28,2.03-8.32,5.98-10.03
		c1.28-0.56,2.64-0.83,3.98-0.83c2.77,0,5.5,1.16,7.44,3.31l29.7,33.04l29.7-33.04c1.89-2.11,4.6-3.31,7.43-3.31
		c2.84,0,5.54,1.2,7.44,3.31l29.7,33.04l29.7-33.04c1.94-2.15,4.66-3.31,7.44-3.31c1.34,0,2.7,0.27,3.98,0.83
		C365.66,228.42,368.07,232.46,367.7,236.74z M283.46,126.33c-86.78,0-157.13,70.35-157.13,157.13
		c0,86.79,70.35,157.14,157.13,157.14c86.79,0,157.14-70.35,157.14-157.14C440.6,196.68,370.25,126.33,283.46,126.33z M367.7,236.74
		l-8.26,95.17c-0.45,5.17-4.78,9.14-9.96,9.14H217.45c-5.19,0-9.51-3.97-9.96-9.14l-8.26-95.17c-0.37-4.28,2.03-8.32,5.98-10.03
		c1.28-0.56,2.64-0.83,3.98-0.83c2.77,0,5.5,1.16,7.44,3.31l29.7,33.04l29.7-33.04c1.89-2.11,4.6-3.31,7.43-3.31
		c2.84,0,5.54,1.2,7.44,3.31l29.7,33.04l29.7-33.04c1.94-2.15,4.66-3.31,7.44-3.31c1.34,0,2.7,0.27,3.98,0.83
		C365.66,228.42,368.07,232.46,367.7,236.74z"/>
	<path class="st0" d="M437.46,218.4c-8.42-19.9-20.47-37.77-35.81-53.12c-15.35-15.34-33.22-27.39-53.13-35.81
		c-20.61-8.72-42.5-13.14-65.06-13.14c-22.55,0-44.44,4.42-65.05,13.14c-19.91,8.42-37.78,20.47-53.13,35.81
		c-15.34,15.35-27.39,33.22-35.81,53.12c-8.72,20.62-13.14,42.51-13.14,65.06c0,22.56,4.42,44.45,13.14,65.06
		c8.42,19.91,20.47,37.78,35.81,53.13c15.35,15.34,33.22,27.39,53.13,35.81c20.61,8.72,42.5,13.14,65.05,13.14
		c22.56,0,44.45-4.42,65.06-13.14c19.91-8.42,37.78-20.47,53.13-35.81c15.34-15.35,27.39-33.22,35.81-53.13
		c8.72-20.61,13.14-42.5,13.14-65.06C450.6,260.91,446.18,239.02,437.46,218.4z M283.46,440.6c-86.78,0-157.13-70.35-157.13-157.14
		c0-86.78,70.35-157.13,157.13-157.13c86.79,0,157.14,70.35,157.14,157.13C440.6,370.25,370.25,440.6,283.46,440.6z"/>
	<g>
		<polygon class="st1" points="357.74,235.88 349.48,331.05 217.45,331.05 209.19,235.88 246.33,277.19 283.46,235.88 320.6,277.19 
					"/>
		<path class="st1" d="M283.46,126.33c-86.78,0-157.13,70.35-157.13,157.13c0,86.79,70.35,157.14,157.13,157.14
			c86.79,0,157.14-70.35,157.14-157.14C440.6,196.68,370.25,126.33,283.46,126.33z M367.7,236.74l-8.26,95.17
			c-0.45,5.17-4.78,9.14-9.96,9.14H217.45c-5.19,0-9.51-3.97-9.96-9.14l-8.26-95.17c-0.37-4.28,2.03-8.32,5.98-10.03
			c1.28-0.56,2.64-0.83,3.98-0.83c2.77,0,5.5,1.16,7.44,3.31l29.7,33.04l29.7-33.04c1.89-2.11,4.6-3.31,7.43-3.31
			c2.84,0,5.54,1.2,7.44,3.31l29.7,33.04l29.7-33.04c1.94-2.15,4.66-3.31,7.44-3.31c1.34,0,2.7,0.27,3.98,0.83
			C365.66,228.42,368.07,232.46,367.7,236.74z"/>
		<path class="st0" d="M361.72,226.71c-1.28-0.56-2.64-0.83-3.98-0.83c-2.78,0-5.5,1.16-7.44,3.31l-29.7,33.04l-29.7-33.04
			c-1.9-2.11-4.6-3.31-7.44-3.31c-2.83,0-5.54,1.2-7.43,3.31l-29.7,33.04l-29.7-33.04c-1.94-2.15-4.67-3.31-7.44-3.31
			c-1.34,0-2.7,0.27-3.98,0.83c-3.95,1.71-6.35,5.75-5.98,10.03l8.26,95.17c0.45,5.17,4.77,9.14,9.96,9.14h132.03
			c5.18,0,9.51-3.97,9.96-9.14l8.26-95.17C368.07,232.46,365.66,228.42,361.72,226.71z M349.48,331.05H217.45l-8.26-95.17
			l37.14,41.31l37.13-41.31l37.14,41.31l37.14-41.31L349.48,331.05z"/>
	</g>
	<g>
		<polygon points="357.74,235.88 349.48,331.05 217.45,331.05 209.19,235.88 246.33,277.19 283.46,235.88 320.6,277.19 		"/>
	</g>
</g>
</svg>
