<?xml version="1.0" encoding="utf-8"?>
<!-- Generator: Adobe Illustrator 25.1.0, SVG Export Plug-In . SVG Version: 6.00 Build 0)  -->
<svg version="1.0" id="Layer_1" xmlns="http://www.w3.org/2000/svg" xmlns:xlink="http://www.w3.org/1999/xlink" x="0px" y="0px"
	 viewBox="0 0 566.93 566.93" style="enable-background:new 0 0 566.93 566.93;" xml:space="preserve">
<style type="text/css">
	.st0{fill:#dce0df;stroke:#dce0df;stroke-width:10;stroke-miterlimit:10;}
	.st1{stroke:#dce0df;stroke-width:10;stroke-miterlimit:10;}
	.st2{fill:#dce0df;}
	.st3{stroke:#231F20;stroke-width:10;stroke-miterlimit:10;}
</style>
<g>
	<path d="M365.12,283.46c0,45.1-36.56,81.66-81.66,81.66c-45.09,0-81.65-36.56-81.65-81.66c0-45.09,36.56-81.65,81.65-81.65
		C328.56,201.81,365.12,238.37,365.12,283.46z"/>
	<path d="M283.46,126.33c-86.78,0-157.13,70.35-157.13,157.13c0,86.79,70.35,157.14,157.13,157.14
		c86.79,0,157.14-70.35,157.14-157.14C440.6,196.68,370.25,126.33,283.46,126.33z M283.46,375.12c-50.54,0-91.65-41.12-91.65-91.66
		c0-50.54,41.11-91.65,91.65-91.65c50.54,0,91.66,41.11,91.66,91.65C375.12,334,334,375.12,283.46,375.12z"/>
	<path d="M283.46,50.82c-128.48,0-232.64,104.16-232.64,232.64c0,128.49,104.16,232.65,232.64,232.65
		c128.49,0,232.65-104.16,232.65-232.65C516.11,154.98,411.95,50.82,283.46,50.82z M437.46,348.52
		c-8.42,19.91-20.47,37.78-35.81,53.13c-15.35,15.34-33.22,27.39-53.13,35.81c-20.61,8.72-42.5,13.14-65.06,13.14
		c-22.55,0-44.44-4.42-65.05-13.14c-19.91-8.42-37.78-20.47-53.13-35.81c-15.34-15.35-27.39-33.22-35.81-53.13
		c-8.72-20.61-13.14-42.5-13.14-65.06c0-22.55,4.42-44.44,13.14-65.05c8.42-19.91,20.47-37.78,35.81-53.13
		c15.35-15.34,33.22-27.39,53.13-35.81c20.61-8.72,42.5-13.14,65.05-13.14c22.56,0,44.45,4.42,65.06,13.14
		c19.91,8.42,37.78,20.47,53.13,35.81c15.34,15.35,27.39,33.22,35.81,53.13c8.72,20.61,13.14,42.5,13.14,65.05
		C450.6,306.02,446.18,327.91,437.46,348.52z"/>
	<path class="st0" d="M437.46,218.41c-8.42-19.91-20.47-37.78-35.81-53.13c-15.35-15.34-33.22-27.39-53.13-35.81
		c-20.61-8.72-42.5-13.14-65.06-13.14c-22.55,0-44.44,4.42-65.05,13.14c-19.91,8.42-37.78,20.47-53.13,35.81
		c-15.34,15.35-27.39,33.22-35.81,53.13c-8.72,20.61-13.14,42.5-13.14,65.05c0,22.56,4.42,44.45,13.14,65.06
		c8.42,19.91,20.47,37.78,35.81,53.13c15.35,15.34,33.22,27.39,53.13,35.81c20.61,8.72,42.5,13.14,65.05,13.14
		c22.56,0,44.45-4.42,65.06-13.14c19.91-8.42,37.78-20.47,53.13-35.81c15.34-15.35,27.39-33.22,35.81-53.13
		c8.72-20.61,13.14-42.5,13.14-65.06C450.6,260.91,446.18,239.02,437.46,218.41z M283.46,440.6c-86.78,0-157.13-70.35-157.13-157.14
		c0-86.78,70.35-157.13,157.13-157.13c86.79,0,157.14,70.35,157.14,157.13C440.6,370.25,370.25,440.6,283.46,440.6z"/>
	<path class="st0" d="M283.46,191.81c-50.54,0-91.65,41.11-91.65,91.65c0,50.54,41.11,91.66,91.65,91.66
		c50.54,0,91.66-41.12,91.66-91.66C375.12,232.92,334,191.81,283.46,191.81z M283.46,365.12c-45.09,0-81.65-36.56-81.65-81.66
		c0-45.09,36.56-81.65,81.65-81.65c45.1,0,81.66,36.56,81.66,81.65C365.12,328.56,328.56,365.12,283.46,365.12z"/>
</g>
</svg>
