<?xml version="1.0" encoding="utf-8"?>
<!-- Generator: Adobe Illustrator 25.1.0, SVG Export Plug-In . SVG Version: 6.00 Build 0)  -->
<svg version="1.0" id="Layer_1" xmlns="http://www.w3.org/2000/svg" xmlns:xlink="http://www.w3.org/1999/xlink" x="0px" y="0px"
	 viewBox="0 0 566.93 566.93" style="enable-background:new 0 0 566.93 566.93;" xml:space="preserve">
<style type="text/css">
	.st0{fill:#f6f6f6;stroke:#f6f6f6;stroke-width:10;stroke-miterlimit:10;}
	.st1{stroke:#f6f6f6;stroke-width:10;stroke-miterlimit:10;}
	.st2{fill:#f6f6f6;}
	.st3{stroke:#231F20;stroke-width:10;stroke-miterlimit:10;}
</style>
<g>
	<path class="st2" d="M283.46,115.78c-86.78,0-157.13,70.35-157.13,157.13s70.35,157.13,157.13,157.13S440.6,359.7,440.6,272.92
		S370.25,115.78,283.46,115.78z M367.7,226.2l-8.26,95.17c-0.45,5.17-4.77,9.14-9.96,9.14H217.45c-5.19,0-9.51-3.97-9.96-9.14
		l-8.26-95.17c-0.37-4.28,2.04-8.33,5.98-10.04c1.28-0.56,2.64-0.83,3.98-0.83c2.78,0,5.5,1.16,7.44,3.31l29.7,33.04l29.7-33.04
		c1.9-2.11,4.6-3.31,7.44-3.31s5.54,1.2,7.44,3.31l29.7,33.04l29.7-33.04c1.94-2.16,4.66-3.31,7.44-3.31c1.34,0,2.69,0.27,3.98,0.83
		C365.66,217.87,368.07,221.92,367.7,226.2z"/>
	<polygon class="st2" points="320.6,266.64 283.46,225.33 246.33,266.64 209.19,225.33 217.45,320.5 349.48,320.5 357.74,225.33 	
		"/>
	<path class="st2" d="M506.11,272.92c0-59.47-23.16-115.38-65.21-157.43c-42.05-42.05-97.96-65.21-157.43-65.21
		s-115.38,23.16-157.43,65.21c-42.05,42.05-65.21,97.96-65.21,157.43c0,59.47,23.16,115.38,65.21,157.43
		c42.05,42.05,97.96,65.21,157.43,65.21s115.38-23.16,157.43-65.21C482.95,388.3,506.11,332.39,506.11,272.92z M401.65,391.1
		c-15.35,15.35-33.22,27.4-53.12,35.81c-20.61,8.72-42.5,13.14-65.06,13.14c-22.56,0-44.45-4.42-65.06-13.14
		c-19.9-8.42-37.78-20.47-53.12-35.81s-27.4-33.22-35.81-53.12c-8.72-20.61-13.14-42.5-13.14-65.06c0-22.56,4.42-44.45,13.14-65.06
		c8.42-19.9,20.47-37.78,35.81-53.12s33.22-27.4,53.12-35.81c20.61-8.72,42.5-13.14,65.06-13.14c22.56,0,44.45,4.42,65.06,13.14
		c19.9,8.42,37.78,20.47,53.12,35.81s27.4,33.22,35.81,53.12c8.72,20.61,13.14,42.5,13.14,65.06c0,22.56-4.42,44.45-13.14,65.06
		C429.04,357.88,416.99,375.75,401.65,391.1z"/>
	<path class="st2" d="M455.04,101.35c-45.83-45.83-106.76-71.07-171.57-71.07s-125.74,25.24-171.57,71.07
		c-45.83,45.83-71.07,106.76-71.07,171.57s25.24,125.74,71.07,171.57c45.83,45.83,106.76,71.07,171.57,71.07
		s125.74-25.24,171.57-71.07c45.83-45.83,71.07-106.76,71.07-171.57S500.87,147.17,455.04,101.35z M126.03,430.35
		c-42.05-42.05-65.21-97.96-65.21-157.43c0-59.47,23.16-115.38,65.21-157.43c42.05-42.05,97.96-65.21,157.43-65.21
		s115.38,23.16,157.43,65.21c42.05,42.05,65.21,97.96,65.21,157.43S482.95,388.3,440.9,430.35
		c-42.05,42.05-97.96,65.21-157.43,65.21S168.09,472.4,126.03,430.35z"/>
	<path class="st3" d="M437.46,207.86c-8.42-19.9-20.47-37.78-35.81-53.12s-33.22-27.4-53.12-35.81
		c-20.61-8.72-42.5-13.14-65.06-13.14c-22.56,0-44.45,4.42-65.06,13.14c-19.9,8.42-37.78,20.47-53.12,35.81s-27.4,33.22-35.81,53.12
		c-8.72,20.61-13.14,42.5-13.14,65.06c0,22.56,4.42,44.45,13.14,65.06c8.42,19.9,20.47,37.78,35.81,53.12s33.22,27.4,53.12,35.81
		c20.61,8.72,42.5,13.14,65.06,13.14c22.56,0,44.45-4.42,65.06-13.14c19.9-8.42,37.78-20.47,53.12-35.81s27.4-33.22,35.81-53.12
		c8.72-20.61,13.14-42.5,13.14-65.06C450.6,250.36,446.18,228.47,437.46,207.86z M283.46,430.05
		c-86.78,0-157.13-70.35-157.13-157.13s70.35-157.13,157.13-157.13S440.6,186.14,440.6,272.92S370.25,430.05,283.46,430.05z"/>
	<path class="st3" d="M361.72,216.16c-1.28-0.56-2.64-0.83-3.98-0.83c-2.78,0-5.5,1.16-7.44,3.31l-29.7,33.04l-29.7-33.04
		c-1.9-2.11-4.6-3.31-7.44-3.31s-5.54,1.2-7.44,3.31l-29.7,33.04l-29.7-33.04c-1.94-2.16-4.66-3.31-7.44-3.31
		c-1.34,0-2.69,0.27-3.98,0.83c-3.94,1.71-6.35,5.75-5.98,10.04l8.26,95.17c0.45,5.17,4.77,9.14,9.96,9.14h132.03
		c5.19,0,9.51-3.97,9.96-9.14l8.26-95.17C368.07,221.92,365.66,217.87,361.72,216.16z M349.48,320.5H217.45l-8.26-95.17l37.14,41.31
		l37.14-41.31l37.14,41.31l37.14-41.31L349.48,320.5z"/>
</g>
</svg>
