<?xml version="1.0" encoding="utf-8"?>
<!-- Generator: Adobe Illustrator 25.1.0, SVG Export Plug-In . SVG Version: 6.00 Build 0)  -->
<svg version="1.0" id="Layer_1" xmlns="http://www.w3.org/2000/svg" xmlns:xlink="http://www.w3.org/1999/xlink" x="0px" y="0px"
	 viewBox="0 0 566.93 566.93" style="enable-background:new 0 0 566.93 566.93;" xml:space="preserve">
<style type="text/css">
	.st0{fill:#f6f6f6;stroke:#f6f6f6;stroke-width:10;stroke-miterlimit:10;}
	.st1{stroke:#f6f6f6;stroke-width:10;stroke-miterlimit:10;}
	.st2{fill:#f6f6f6;}
	.st3{stroke:#231F20;stroke-width:10;stroke-miterlimit:10;}
</style>
<g>
	<path class="st2" d="M283.47,134.61c-86.78,0-157.13,70.35-157.13,157.13s70.35,157.13,157.13,157.13S440.6,378.53,440.6,291.75
		S370.25,134.61,283.47,134.61z M283.46,369.33c-42.78,0-77.59-34.81-77.59-77.59c0-42.78,34.81-77.59,77.59-77.59
		c42.78,0,77.59,34.81,77.59,77.59C361.05,334.53,326.25,369.33,283.46,369.33z"/>
	
		<ellipse transform="matrix(0.5145 -0.8575 0.8575 0.5145 -112.5476 384.7133)" class="st2" cx="283.46" cy="291.75" rx="68.63" ry="68.63"/>
	<path class="st2" d="M506.11,291.75c0-59.47-23.16-115.38-65.21-157.43c-42.05-42.05-97.96-65.21-157.43-65.21
		s-115.38,23.16-157.43,65.21c-42.05,42.05-65.21,97.96-65.21,157.43c0,59.47,23.16,115.38,65.21,157.43
		c42.05,42.05,97.96,65.21,157.43,65.21s115.38-23.16,157.43-65.21C482.95,407.13,506.11,351.22,506.11,291.75z M401.65,409.93
		c-15.35,15.35-33.22,27.4-53.12,35.81c-20.61,8.72-42.5,13.14-65.06,13.14c-22.56,0-44.45-4.42-65.06-13.14
		c-19.9-8.42-37.78-20.47-53.12-35.81s-27.4-33.22-35.81-53.12c-8.72-20.61-13.14-42.5-13.14-65.06c0-22.56,4.42-44.45,13.14-65.06
		c8.42-19.9,20.47-37.78,35.81-53.12s33.22-27.4,53.12-35.81c20.61-8.72,42.5-13.14,65.06-13.14c22.56,0,44.45,4.42,65.06,13.14
		c19.9,8.42,37.78,20.47,53.12,35.81s27.4,33.22,35.81,53.12c8.72,20.61,13.14,42.5,13.14,65.06c0,22.56-4.42,44.45-13.14,65.06
		C429.04,376.71,416.99,394.58,401.65,409.93z"/>
	<path class="st2" d="M455.04,120.17c-45.83-45.83-106.76-71.07-171.57-71.07s-125.74,25.24-171.57,71.07
		C66.06,166,40.82,226.93,40.82,291.75s25.24,125.74,71.07,171.57c45.83,45.83,106.76,71.07,171.57,71.07s125.74-25.24,171.57-71.07
		c45.83-45.83,71.07-106.76,71.07-171.57S500.87,166,455.04,120.17z M126.03,449.18c-42.05-42.05-65.21-97.96-65.21-157.43
		c0-59.47,23.16-115.38,65.21-157.43C168.09,92.26,224,69.11,283.47,69.11s115.38,23.16,157.43,65.21
		c42.05,42.05,65.21,97.96,65.21,157.43s-23.16,115.38-65.21,157.43c-42.05,42.05-97.96,65.21-157.43,65.21
		S168.09,491.23,126.03,449.18z"/>
	<path class="st3" d="M437.46,226.69c-8.42-19.9-20.47-37.78-35.81-53.12s-33.22-27.4-53.12-35.81
		c-20.61-8.72-42.5-13.14-65.06-13.14c-22.56,0-44.45,4.42-65.06,13.14c-19.9,8.42-37.78,20.47-53.12,35.81s-27.4,33.22-35.81,53.12
		c-8.72,20.61-13.14,42.5-13.14,65.06c0,22.56,4.42,44.45,13.14,65.06c8.42,19.9,20.47,37.78,35.81,53.12s33.22,27.4,53.12,35.81
		c20.61,8.72,42.5,13.14,65.06,13.14c22.56,0,44.45-4.42,65.06-13.14c19.9-8.42,37.78-20.47,53.12-35.81s27.4-33.22,35.81-53.12
		c8.72-20.61,13.14-42.5,13.14-65.06C450.6,269.19,446.18,247.3,437.46,226.69z M283.47,448.88c-86.78,0-157.13-70.35-157.13-157.13
		s70.35-157.13,157.13-157.13S440.6,204.96,440.6,291.75S370.25,448.88,283.47,448.88z"/>
	<path class="st3" d="M283.46,214.16c-42.78,0-77.59,34.81-77.59,77.59c0,42.78,34.81,77.59,77.59,77.59
		c42.78,0,77.59-34.81,77.59-77.59C361.05,248.96,326.25,214.16,283.46,214.16z M283.46,360.38c-37.84,0-68.63-30.79-68.63-68.63
		c0-37.84,30.79-68.63,68.63-68.63c37.85,0,68.63,30.79,68.63,68.63C352.1,329.59,321.31,360.38,283.46,360.38z"/>
</g>
</svg>
